# Blender v2.77 (sub 0) OBJ File: 'camera.blend'
# www.blender.org
mtllib camera.mtl
o Cube
v 0.097868 -0.133973 -0.147224
v 0.097868 -0.001088 0.263445
v -0.097868 -0.001088 0.263445
v -0.097868 -0.133973 -0.147224
v 0.097868 0.052256 -0.207485
v 0.097868 0.185141 0.203185
v -0.097868 0.185141 0.203184
v -0.097868 0.052256 -0.207485
v -0.000000 -0.134330 -0.212495
v 0.055234 -0.112562 -0.219538
v -0.000000 -0.096102 -0.138857
v -0.000000 -0.121295 -0.216713
v 0.045547 -0.078153 -0.144665
v 0.045547 -0.103345 -0.222521
v 0.064413 -0.034818 -0.158687
v 0.064413 -0.060011 -0.236543
v 0.045547 0.008517 -0.172709
v 0.045547 -0.016676 -0.250565
v -0.000000 0.026466 -0.178518
v -0.000000 0.001273 -0.256374
v -0.045547 0.008517 -0.172709
v -0.045547 -0.016676 -0.250565
v -0.064413 -0.034818 -0.158687
v -0.064413 -0.060011 -0.236543
v -0.045547 -0.078153 -0.144665
v -0.045547 -0.103345 -0.222521
v 0.078113 -0.060011 -0.236543
v 0.055234 -0.007459 -0.253548
v -0.000000 0.014308 -0.260591
v -0.055234 -0.007459 -0.253548
v -0.078113 -0.060011 -0.236543
v -0.055234 -0.112562 -0.219538
v -0.000000 -0.152744 -0.269402
v -0.055234 -0.130976 -0.276445
v -0.078113 -0.078425 -0.293450
v -0.055234 -0.025873 -0.310455
v -0.000000 -0.004106 -0.317498
v 0.055234 -0.025873 -0.310455
v 0.078113 -0.078425 -0.293450
v 0.055234 -0.130976 -0.276445
v -0.014905 0.092764 0.019540
v -0.014905 0.413785 0.019540
v -0.014905 0.092764 -0.020095
v -0.014905 0.413785 -0.020095
v 0.024730 0.092764 0.019540
v 0.024730 0.413785 0.019540
v 0.024730 0.092764 -0.020095
v 0.024730 0.413785 -0.020095
v -0.000000 -0.137795 -0.274239
v -0.044124 -0.120406 -0.279866
v -0.062401 -0.078425 -0.293450
v -0.044124 -0.036444 -0.307034
v -0.000000 -0.019054 -0.312661
v 0.044124 -0.036444 -0.307034
v 0.062401 -0.078425 -0.293450
v 0.044124 -0.120406 -0.279866
v -0.000000 -0.133447 -0.260799
v -0.044124 -0.116057 -0.266426
v -0.062401 -0.074076 -0.280011
v -0.044124 -0.032095 -0.293595
v -0.000000 -0.014706 -0.299222
v 0.044124 -0.032095 -0.293595
v 0.062401 -0.074076 -0.280011
v 0.044124 -0.116057 -0.266426
v -0.000000 -0.120525 -0.273515
v -0.030693 -0.108429 -0.277429
v -0.043406 -0.079227 -0.286878
v -0.030693 -0.050025 -0.296328
v -0.000000 -0.037929 -0.300242
v 0.030693 -0.050025 -0.296328
v 0.043406 -0.079227 -0.286878
v 0.030693 -0.108429 -0.277429
vt 0.0000 0.4950
vt 0.0000 0.1352
vt 0.3085 0.1352
vt 0.3085 0.4950
vt 0.8809 0.8549
vt 0.5724 0.8549
vt 0.5724 0.4950
vt 0.8809 0.4950
vt 0.3085 0.0000
vt 0.5724 0.1352
vt 0.5724 0.4950
vt 0.3085 0.3599
vt 0.0000 0.0000
vt 0.3085 0.0000
vt 0.5724 0.1352
vt 0.8363 0.0000
vt 0.8363 0.3599
vt 0.5724 0.4950
vt 0.0000 0.4950
vt 0.2966 0.4950
vt 0.2966 0.8029
vt 0.0000 0.8029
vt 0.9146 0.1738
vt 0.8988 0.0869
vt 0.9488 0.0869
vt 0.9646 0.1738
vt 0.4795 0.5162
vt 0.4431 0.5398
vt 0.4393 0.5236
vt 0.4833 0.4950
vt 0.4847 0.6202
vt 0.4175 0.6080
vt 0.5104 0.5520
vt 0.4081 0.6063
vt 0.3590 0.5974
vt 0.3901 0.5147
vt 0.4795 0.6920
vt 0.5052 0.6239
vt 0.5145 0.6256
vt 0.4833 0.7082
vt 0.3590 0.6328
vt 0.2982 0.6640
vt 0.2982 0.5951
vt 0.3590 0.5639
vt 0.9622 0.3533
vt 0.9622 0.4368
vt 0.9177 0.4596
vt 0.9177 0.3761
vt 0.4175 0.6808
vt 0.4081 0.6946
vt 0.2982 0.5262
vt 0.3590 0.4950
vt 0.2982 0.7475
vt 0.2982 0.6640
vt 0.3426 0.6867
vt 0.3426 0.7703
vt 0.5052 0.5511
vt 0.5145 0.5373
vt 0.8494 0.3163
vt 0.9177 0.3163
vt 0.9047 0.3880
vt 0.8363 0.3880
vt 0.3590 0.6857
vt 0.4431 0.7156
vt 0.4393 0.7368
vt 0.9177 0.4596
vt 0.8494 0.4596
vt 0.5724 0.8947
vt 0.5080 0.9626
vt 0.4988 0.9401
vt 0.5503 0.8859
vt 0.2365 0.9719
vt 0.1757 0.9407
vt 0.1757 0.8718
vt 0.2365 0.9030
vt 0.9622 0.2697
vt 0.9177 0.2925
vt 0.1757 0.8029
vt 0.2365 0.8341
vt 0.2982 0.8311
vt 0.3426 0.8538
vt 0.4847 0.6930
vt 0.5467 0.5284
vt 0.5724 0.5633
vt 0.5724 0.6361
vt 0.5467 0.7042
vt 0.5104 0.7278
vt 0.9146 0.0000
vt 0.9646 0.0000
vt 0.9717 0.4950
vt 1.0000 0.4950
vt 1.0000 1.0000
vt 0.9717 1.0000
vt 0.8809 0.4950
vt 0.9433 0.4950
vt 0.9433 0.9943
vt 0.8809 0.9943
vt 0.9717 1.0000
vt 0.9433 1.0000
vt 0.9433 0.4950
vt 0.9717 0.4950
vt 0.8988 0.3163
vt 0.8363 0.3163
vt 0.8363 0.0230
vt 0.8988 0.0230
vt 0.8363 0.0000
vt 0.8988 0.0000
vt 0.2982 0.8538
vt 0.3212 0.8538
vt 0.3212 0.9162
vt 0.2982 0.9162
vt 0.2483 0.8029
vt 0.2610 0.8723
vt 0.2492 0.8723
vt 0.2365 0.8029
vt 0.5724 0.8012
vt 0.5503 0.8112
vt 0.4169 0.7393
vt 0.5080 0.7368
vt 0.4988 0.7598
vt 0.4260 0.7618
vt 0.3525 0.9008
vt 0.3525 0.8072
vt 0.3746 0.8160
vt 0.3746 0.8907
vt 0.4169 0.9651
vt 0.4260 0.9422
vt 0.8988 0.3073
vt 0.8988 0.2405
vt 0.9093 0.2459
vt 0.9093 0.3126
vt 0.2854 0.8029
vt 0.2728 0.8723
vt 0.2610 0.8723
vt 0.2736 0.8029
vt 0.2854 0.9418
vt 0.2854 0.8750
vt 0.2959 0.8697
vt 0.2959 0.9364
vt 0.8988 0.1738
vt 0.9093 0.1791
vt 0.2854 0.9417
vt 0.2736 0.9417
vt 0.2854 0.8083
vt 0.2959 0.8029
vt 0.2483 0.9417
vt 0.2365 0.9417
vt 0.0515 0.9853
vt 0.0000 0.9339
vt 0.0335 0.9245
vt 0.0693 0.9602
vt 0.1557 0.8691
vt 0.1557 0.9211
vt 0.1199 0.9588
vt 0.0335 0.8725
vt 0.0693 0.8348
vt 0.1199 0.8334
vt 0.1757 0.9290
vt 0.1242 0.9833
vt 0.1757 0.8543
vt 0.0515 0.8049
vt 0.1242 0.8029
vt 0.0000 0.8592
vn 0.5773 -0.7270 -0.3715
vn 0.5773 -0.3715 0.7270
vn -0.5773 -0.3715 0.7270
vn -0.5773 -0.7270 -0.3715
vn 0.5773 0.3715 -0.7270
vn -0.5773 0.3715 -0.7270
vn -0.5773 0.7270 0.3715
vn 0.5773 0.7270 0.3716
vn -0.5490 0.7163 0.4306
vn 0.0000 0.9327 0.3606
vn 0.0000 0.5446 -0.8386
vn -0.5490 0.3283 -0.7686
vn 0.5943 0.2476 0.7651
vn 0.4203 -0.1523 0.8945
vn 0.5490 -0.3283 0.7686
vn 0.7764 0.1940 0.5996
vn 0.0000 -0.5446 0.8386
vn 0.0000 -0.3179 0.9481
vn 0.0000 -0.9327 -0.3606
vn 0.5490 -0.7163 -0.4306
vn -0.4203 0.6475 0.6357
vn 0.0000 0.8131 0.5821
vn 0.7764 -0.1940 -0.5996
vn -0.4203 -0.1523 0.8945
vn -0.5490 -0.3283 0.7686
vn 0.4203 0.6475 0.6357
vn 0.5490 0.7163 0.4306
vn -0.7764 0.1940 0.5996
vn -0.7764 -0.1940 -0.5996
vn -0.5490 -0.7163 -0.4306
vn -0.5943 0.2476 0.7651
vn 0.4203 0.1523 -0.8945
vn 0.0000 0.3179 -0.9481
vn 0.5490 0.3283 -0.7686
vn -0.5773 0.5773 0.5773
vn -0.5773 0.5773 -0.5773
vn -0.5773 -0.5773 -0.5773
vn -0.5773 -0.5773 0.5773
vn 0.5773 0.5773 -0.5773
vn 0.5773 -0.5773 -0.5773
vn 0.5773 0.5773 0.5773
vn 0.5773 -0.5773 0.5773
vn -0.4203 0.1523 -0.8945
vn 0.0000 0.3818 -0.9242
vn -0.4575 0.2117 -0.8636
vn -0.5943 -0.2476 -0.7651
vn -0.4203 -0.6475 -0.6357
vn 0.0000 -0.8131 -0.5821
vn 0.4203 -0.6475 -0.6357
vn 0.5943 -0.2476 -0.7651
vn -0.6663 -0.2221 -0.7118
vn -0.4814 -0.6787 -0.5546
vn 0.0000 -0.8726 -0.4885
vn 0.4814 -0.6787 -0.5546
vn 0.6663 -0.2221 -0.7118
vn 0.4575 0.2117 -0.8636
vn -0.1663 -0.1514 -0.9744
vn -0.2491 -0.3097 -0.9176
vn 0.1856 -0.4865 -0.8537
vn 0.0000 -0.5645 -0.8254
vn -0.1856 -0.4865 -0.8537
vn 0.0000 -0.0913 -0.9958
vn 0.1663 -0.1514 -0.9744
vn 0.2491 -0.3097 -0.9176
usemtl Material
s 1
f 1/1/1 2/2/2 3/3/3 4/4/4
f 5/5/5 8/6/6 7/7/7 6/8/8
f 1/9/1 5/10/5 6/11/8 2/12/2
f 2/2/2 6/13/8 7/14/7 3/3/3
f 3/15/3 7/16/7 8/17/6 4/18/4
f 5/19/5 1/20/1 4/21/4 8/22/6
f 30/23/9 29/24/10 37/25/11 36/26/12
f 16/27/13 14/28/14 10/29/15 27/30/16
f 11/31/17 12/32/18 14/28/14 13/33/15
f 10/29/15 9/34/17 33/35/19 40/36/20
f 22/37/21 20/38/22 29/39/10 30/40/9
f 13/41/15 14/42/14 16/43/13 15/44/16
f 27/45/16 10/46/15 40/47/20 39/48/23
f 12/32/18 26/49/24 32/50/25 9/34/17
f 15/44/16 16/43/13 18/51/26 17/52/27
f 31/53/28 30/54/9 36/55/12 35/56/29
f 20/38/22 18/57/26 28/58/27 29/39/10
f 17/59/27 18/60/26 20/61/22 19/62/10
f 9/34/17 32/50/25 34/63/30 33/35/19
f 26/49/24 24/64/31 31/65/28 32/50/25
f 19/62/10 20/61/22 22/66/21 21/67/9
f 33/68/19 34/69/30 50/70/32 49/71/33
f 18/57/26 16/27/13 27/30/16 28/58/27
f 21/72/9 22/73/21 24/74/31 23/75/28
f 14/28/14 12/32/18 9/34/17 10/29/15
f 28/76/27 27/45/16 39/48/23 38/77/34
f 23/75/28 24/74/31 26/78/24 25/79/25
f 32/80/25 31/53/28 35/56/29 34/81/30
f 24/64/31 22/37/21 30/40/9 31/65/28
f 25/82/25 26/49/24 12/32/18 11/31/17
f 11/31/17 13/33/15 15/83/16 17/84/27 19/85/10 21/86/9 23/87/28 25/82/25
f 29/24/10 28/88/27 38/89/34 37/25/11
f 42/90/35 44/91/36 43/92/37 41/93/38
f 44/94/36 48/95/39 47/96/40 43/97/37
f 48/98/39 46/99/41 45/100/42 47/101/40
f 46/102/41 42/103/35 41/104/38 45/105/42
f 41/104/38 43/106/37 47/107/40 45/105/42
f 46/108/41 48/109/39 44/110/36 42/111/35
f 56/112/43 49/113/33 57/114/44 64/115/45
f 40/116/20 33/68/19 49/71/33 56/117/43
f 38/118/34 39/119/23 55/120/46 54/121/47
f 36/122/12 37/123/11 53/124/48 52/125/49
f 34/69/30 35/126/29 51/127/50 50/70/32
f 39/119/23 40/116/20 56/117/43 55/120/46
f 37/123/11 38/118/34 54/121/47 53/124/48
f 35/126/29 36/122/12 52/125/49 51/127/50
f 54/128/47 55/129/46 63/130/51 62/131/52
f 52/132/49 53/133/48 61/134/53 60/135/54
f 50/136/32 51/137/50 59/138/55 58/139/56
f 55/129/46 56/140/43 64/141/45 63/130/51
f 53/133/48 54/142/47 62/143/52 61/134/53
f 51/137/50 52/144/49 60/145/54 59/138/55
f 49/113/33 50/146/32 58/147/56 57/114/44
usemtl black
f 59/148/55 60/149/54 68/150/57 67/151/58
f 72/152/59 65/153/60 66/154/61 67/151/58 68/150/57 69/155/62 70/156/63 71/157/64
f 57/158/44 58/159/56 66/154/61 65/153/60
f 64/160/45 57/158/44 65/153/60 72/152/59
f 62/161/52 63/162/51 71/157/64 70/156/63
f 60/149/54 61/163/53 69/155/62 68/150/57
f 58/159/56 59/148/55 67/151/58 66/154/61
f 63/162/51 64/160/45 72/152/59 71/157/64
f 61/163/53 62/161/52 70/156/63 69/155/62
